# xmcd
#
# Track frame offsets:
#	150
#	15344
#	31012
#	44136
#	59388
#	76572
#	92059
#	106810
#	121179
#	138192
#	154403
#	173160
#	189233
#
# Disc length: 2693 seconds
#
# Revision: 1
# Processed by: cddbd v1.5.2PL0 Copyright (c) Steve Scherf et al.
# Submitted via: audiograbber 1.83.01
#
DISCID=940a830d
DTITLE=Tania Kernaghan - Big Sky Country
DYEAR=2001
DGENRE=Country
TTITLE0=Goin' Bush
TTITLE1=Heart Of A Man
TTITLE2=Lasso You
TTITLE3=Steal Away
TTITLE4=Drover's Boy
TTITLE5=A Farmer's Prayer
TTITLE6=She'll Be Right
TTITLE7=The Mongrel
TTITLE8=Too Little Love
TTITLE9=Getting A Grip
TTITLE10=Boots n' All
TTITLE11=Big Sky Country
TTITLE12=Big Sky Country Reprise
EXTD=
EXTT0=
EXTT1=
EXTT2=
EXTT3=
EXTT4=
EXTT5=
EXTT6=
EXTT7=
EXTT8=
EXTT9=
EXTT10=
EXTT11=
EXTT12=
PLAYORDER=
